<svg width="38" height="35" viewBox="0 0 38 35" fill="none" xmlns="http://www.w3.org/2000/svg">
<g id="Group">
<path id="Vector" d="M37.2275 3.47532C37.2275 5.07602 35.9233 6.11351 34.3226 6.11351H29.3723V10.0263C27.7716 8.57384 26.408 8.21813 24.2145 8.39599V0.807495H34.3226C35.9233 0.807495 37.2275 1.84498 37.2275 3.47532Z" fill="#74CCD8"/>
<g id="Group_2">
<path id="Vector_2" d="M18.197 1.84499V10.7674C15.8256 9.25563 13.8989 8.09957 11.7053 8.09957H11.646C6.39929 8.09957 2.16041 12.7238 2.16041 18.1188C2.16041 18.267 2.16041 18.5041 2.16041 18.6523C1.12292 16.607 0.500427 14.3838 0.500427 11.9827C0.500427 4.51282 5.71751 0.688934 12.4464 0.688934H12.5353C14.136 0.688934 17.0113 1.25214 18.197 1.84499Z" fill="url(#paint0_linear_1_25162)"/>
</g>
<g id="Group_3">
<path id="Vector_3" d="M31.9808 18.5041C31.9808 20.7569 30.8544 22.8319 29.2241 24.6105C28.3051 24.0473 27.2084 23.7212 26.0523 23.7212C22.6731 23.7212 19.9459 26.4483 19.9459 29.8276C19.9459 30.2426 19.9756 30.6279 20.0645 31.0133C18.8195 31.6061 17.9895 31.9322 17.9895 31.9322C17.9895 31.9322 17.2781 31.6358 16.211 31.1318C16.2999 30.7168 16.3592 30.2722 16.3592 29.8276C16.3592 26.4483 13.6321 23.7212 10.2528 23.7212C9.00784 23.7212 7.85178 24.0769 6.90322 24.7291C5.2136 22.9209 4.02789 20.7273 4.02789 18.4448C4.02789 14.117 7.43679 10.5006 11.646 10.5006H11.7053C14.2546 10.5006 16.626 11.9235 18.0192 14.117C19.442 11.8938 21.8431 10.2635 24.3923 10.2635C28.5719 10.2931 31.9808 14.1763 31.9808 18.5041Z" fill="url(#paint1_linear_1_25162)"/>
</g>
<path id="Vector_4" d="M10.0157 34.0665C12.3568 34.0665 14.2546 32.1686 14.2546 29.8276C14.2546 27.4865 12.3568 25.5887 10.0157 25.5887C7.67461 25.5887 5.7768 27.4865 5.7768 29.8276C5.7768 32.1686 7.67461 34.0665 10.0157 34.0665Z" fill="#74CCD8"/>
<path id="Vector_5" d="M26.0523 34.0665C28.3934 34.0665 30.2912 32.1686 30.2912 29.8276C30.2912 27.4865 28.3934 25.5887 26.0523 25.5887C23.7112 25.5887 21.8134 27.4865 21.8134 29.8276C21.8134 32.1686 23.7112 34.0665 26.0523 34.0665Z" fill="#74CCD8"/>
</g>
<defs>
<linearGradient id="paint0_linear_1_25162" x1="9.34873" y1="0.688934" x2="9.34873" y2="18.6523" gradientUnits="userSpaceOnUse">
<stop stop-color="#ED9BC1"/>
<stop offset="1" stop-color="#ED9BB9"/>
</linearGradient>
<linearGradient id="paint1_linear_1_25162" x1="18.0044" y1="10.2635" x2="18.0044" y2="31.9322" gradientUnits="userSpaceOnUse">
<stop stop-color="#ED9BC1"/>
<stop offset="1" stop-color="#ED9BB9"/>
</linearGradient>
</defs>
</svg>
